<?xml version="1.0" encoding="UTF-8"?>
<mxfile host="app.diagrams.net" modified="2024-03-21T00:00:00.000Z" agent="Mozilla/5.0" version="21.7.5" etag="your-etag" type="device">
  <diagram id="client-flow" name="客户端操作流程图">
    <mxGraphModel dx="1200" dy="800" grid="1" gridSize="10" guides="1" tooltips="1" connect="1" arrows="1" fold="1" page="1" pageScale="1" pageWidth="1200" pageHeight="800" math="0" shadow="0">
      <root>
        <mxCell id="0"/>
        <mxCell id="1" parent="0"/>
        <!-- 用户操作 -->
        <mxCell id="user-action" value="用户操作（如点击按钮）" style="ellipse;whiteSpace=wrap;html=1;fillColor=#fff2cc;strokeColor=#d6b656;fontSize=14;" vertex="1" parent="1">
          <mxGeometry x="100" y="60" width="160" height="50" as="geometry"/>
        </mxCell>
        <!-- UI层 -->
        <mxCell id="ui-layer" value="UI层接收事件" style="rounded=1;whiteSpace=wrap;html=1;fillColor=#dae8fc;strokeColor=#6c8ebf;" vertex="1" parent="1">
          <mxGeometry x="100" y="140" width="160" height="50" as="geometry"/>
        </mxCell>
        <!-- IAPIService -->
        <mxCell id="iapiservice" value="IAPIService 处理请求" style="rounded=1;whiteSpace=wrap;html=1;fillColor=#ffffff;strokeColor=#000000;" vertex="1" parent="1">
          <mxGeometry x="100" y="220" width="160" height="50" as="geometry"/>
        </mxCell>
        <!-- DataLayer -->
        <mxCell id="datalayer" value="DataLayer 选择服务" style="rounded=1;whiteSpace=wrap;html=1;fillColor=#ffffff;strokeColor=#000000;" vertex="1" parent="1">
          <mxGeometry x="100" y="300" width="160" height="50" as="geometry"/>
        </mxCell>
        <!-- APIService -->
        <mxCell id="apiservice" value="APIService\n（与服务器通信）" style="rounded=1;whiteSpace=wrap;html=1;fillColor=#ffffff;strokeColor=#000000;" vertex="1" parent="1">
          <mxGeometry x="40" y="400" width="140" height="50" as="geometry"/>
        </mxCell>
        <!-- MockAPIService -->
        <mxCell id="mockapiservice" value="MockAPIService\n（数据模拟）" style="rounded=1;whiteSpace=wrap;html=1;fillColor=#ffffff;strokeColor=#000000;" vertex="1" parent="1">
          <mxGeometry x="220" y="400" width="140" height="50" as="geometry"/>
        </mxCell>
        <!-- 服务器 -->
        <mxCell id="server" value="服务器" style="rounded=1;whiteSpace=wrap;html=1;fillColor=#e1d5e7;strokeColor=#9673a6;" vertex="1" parent="1">
          <mxGeometry x="40" y="500" width="140" height="50" as="geometry"/>
        </mxCell>
        <!-- 结果返回 -->
        <mxCell id="result" value="结果返回并更新界面" style="ellipse;whiteSpace=wrap;html=1;fillColor=#d5e8d4;strokeColor=#82b366;" vertex="1" parent="1">
          <mxGeometry x="100" y="600" width="160" height="50" as="geometry"/>
        </mxCell>
        <!-- 连线 -->
        <mxCell id="e1" style="edgeStyle=orthogonalEdgeStyle;endArrow=block;html=1;" edge="1" parent="1" source="user-action" target="ui-layer">
          <mxGeometry relative="1" as="geometry"/>
        </mxCell>
        <mxCell id="e2" style="edgeStyle=orthogonalEdgeStyle;endArrow=block;html=1;" edge="1" parent="1" source="ui-layer" target="iapiservice">
          <mxGeometry relative="1" as="geometry"/>
        </mxCell>
        <mxCell id="e3" style="edgeStyle=orthogonalEdgeStyle;endArrow=block;html=1;" edge="1" parent="1" source="iapiservice" target="datalayer">
          <mxGeometry relative="1" as="geometry"/>
        </mxCell>
        <mxCell id="e4" style="edgeStyle=orthogonalEdgeStyle;endArrow=block;html=1;" edge="1" parent="1" source="datalayer" target="apiservice">
          <mxGeometry relative="1" as="geometry">
            <Array as="points"><mxPoint x="110" y="375"/></Array>
          </mxGeometry>
        </mxCell>
        <mxCell id="e5" style="edgeStyle=orthogonalEdgeStyle;endArrow=block;html=1;" edge="1" parent="1" source="datalayer" target="mockapiservice">
          <mxGeometry relative="1" as="geometry">
            <Array as="points"><mxPoint x="250" y="375"/></Array>
          </mxGeometry>
        </mxCell>
        <mxCell id="e6" style="edgeStyle=orthogonalEdgeStyle;endArrow=block;html=1;" edge="1" parent="1" source="apiservice" target="server">
          <mxGeometry relative="1" as="geometry"/>
        </mxCell>
        <mxCell id="e7" style="edgeStyle=orthogonalEdgeStyle;endArrow=block;html=1;" edge="1" parent="1" source="apiservice" target="result">
          <mxGeometry relative="1" as="geometry">
            <Array as="points"><mxPoint x="110" y="575"/></Array>
          </mxGeometry>
        </mxCell>
        <mxCell id="e8" style="edgeStyle=orthogonalEdgeStyle;endArrow=block;html=1;" edge="1" parent="1" source="mockapiservice" target="result">
          <mxGeometry relative="1" as="geometry">
            <Array as="points"><mxPoint x="250" y="575"/></Array>
          </mxGeometry>
        </mxCell>
        <mxCell id="e9" style="edgeStyle=orthogonalEdgeStyle;endArrow=block;html=1;" edge="1" parent="1" source="server" target="result">
          <mxGeometry relative="1" as="geometry"/>
        </mxCell>
      </root>
    </mxGraphModel>
  </diagram>
</mxfile> 